<svg width="40" height="40" viewBox="0 0 40 40" fill="none" xmlns="http://www.w3.org/2000/svg">
<path d="M35.4531 3.75622L5.78687 5.73372C5.23374 5.77185 3.50062 6.7806 3.26249 8.96872L1.27874 27.2981C1.17624 28.2543 1.25437 30.4881 3.12562 30.8362L31.9931 36.1987C32.1756 36.2331 32.3612 36.25 32.5444 36.25C33.2425 36.25 35.7581 35.6881 36.0194 33.2543L38.7206 8.29685C38.9744 5.96372 37.5575 3.6131 35.4531 3.75622ZM5.86624 6.85185L35.5287 4.87372C35.9021 4.84479 36.2749 4.93683 36.5919 5.13622L21.4981 18.8081L21.5162 18.6568L13.4431 17.8581L13.8619 14.3762L21.9869 14.7587L22.3712 11.5556L11.4069 11.4981L10.9562 15.2431L5.30937 7.1231C5.49624 6.95997 5.68999 6.86372 5.86624 6.85185ZM2.40874 27.4162L4.39249 9.08747C4.42812 8.75622 4.51187 8.4281 4.63312 8.1281L10.7669 16.8143L10.37 20.1118L2.42249 28.2793C2.38218 27.9933 2.37756 27.7034 2.40874 27.4162ZM32.2037 35.0975L3.33562 29.7343C3.17687 29.7056 3.01937 29.5981 2.87937 29.4287L10.1487 21.9587L9.61312 26.4168L20.2775 28.9625L20.6631 25.7593L12.68 24.205L13.1 20.7212L21.1331 21.8606L21.2775 20.6562L22.1387 19.9031L24.0112 22.3993L33.4031 34.9206C33.0337 35.1099 32.6121 35.172 32.2037 35.0975ZM37.5912 7.61747L34.8894 32.5743C34.8237 33.1825 34.6037 33.7443 34.2669 34.1881L22.985 19.1475L37.335 5.98497C37.5637 6.45185 37.6562 7.0206 37.5912 7.61747Z" fill="#E4A951"/>
</svg>
