<svg width="1em" height="1em" viewBox="0 0 140 79" fill="none" xmlns="http://www.w3.org/2000/svg">
<g clip-path="url(#clip0_256:100)">
<path d="M100.798 42.7889C108.163 37.8997 115.51 32.9707 122.901 28.1328C129.916 23.5388 138.169 27.7751 139.76 36.7141C140.681 41.8851 138.683 47.4713 134.643 50.1921C121.399 59.1115 108.135 67.9955 94.806 76.7437C90.6803 79.4512 86.4306 78.9531 82.6708 75.6351C78.8514 72.2666 77.6478 67.6201 78.5435 62.2121C79.5662 58.0953 81.9068 55.3429 85.0989 53.2838C90.3763 49.8799 95.5689 46.2964 100.798 42.7889Z" fill="#FABC05"/>
<path d="M106.204 39.2339C98.8572 34.3068 91.4914 29.4183 84.1698 24.4413C77.2196 19.7165 76.268 9.33775 82.171 3.2756C85.5857 -0.230102 90.7706 -1.02453 94.8295 1.65831C108.136 10.4539 121.425 19.2867 134.645 28.2529C138.737 31.028 140.488 35.531 139.883 40.9529C139.267 46.4589 136.388 49.9867 131.887 51.7949C128.291 52.8301 125.058 51.8631 121.919 49.6979C116.729 46.1176 111.447 42.7124 106.204 39.2339Z" fill="#109D58"/>
<path d="M39.2393 35.7478C34.5247 38.8434 29.8073 41.9332 25.0971 45.0382C22.3425 46.8546 19.6174 48.7329 16.8486 50.5189C11.2688 54.1182 4.63958 52.0086 1.47591 45.669C-1.54339 39.6195 0.191849 31.7763 5.56544 28.1512C18.7041 19.2887 31.8767 10.4906 45.0968 1.79047C49.1514 -0.8772 53.3579 -0.541608 57.1073 2.6481C61.0645 6.01476 62.3601 10.7522 61.4714 16.3056C60.9201 17.6499 60.5909 19.2255 59.7651 20.2841C58.4231 22.0063 56.8973 23.6551 55.1987 24.8661C49.9422 28.6119 44.5675 32.1372 39.2393 35.7478Z" fill="#E94436"/>
<path d="M33.8331 39.22C38.5105 42.3901 43.1846 45.5672 47.8664 48.7284C50.6046 50.5777 53.3745 52.3656 56.0974 54.2433C61.5848 58.0289 63.3189 65.7178 60.1498 72.0536C57.1256 78.1006 50.381 80.2861 44.9773 76.7197C31.7664 68.0013 18.5873 59.2177 5.4579 50.3362C1.43126 47.6123 -0.420458 43.2344 0.0952455 37.8871C0.639386 32.2427 3.54165 28.5777 8.14798 26.6899C9.4304 26.5705 10.7757 26.1117 11.9821 26.4087C13.9438 26.8916 15.9426 27.5937 17.6992 28.6883C23.1345 32.0759 28.4633 35.6922 33.8331 39.22Z" fill="#4385F3"/>
</g>
<defs>
<clipPath id="clip0_256:100">
<rect width="140" height="79" fill="white"/>
</clipPath>
</defs>
</svg>
