<svg width="1em" height="1em" viewBox="0 0 100 100" fill="none" xmlns="http://www.w3.org/2000/svg">
<path d="M49.9997 87.5001C73.0115 87.5001 91.6664 68.8453 91.6664 45.8334C91.6664 22.8216 73.0115 4.16675 49.9997 4.16675C26.9878 4.16675 8.33301 22.8216 8.33301 45.8334C8.33301 68.8453 26.9878 87.5001 49.9997 87.5001Z" fill="#FFF59D"/>
<path d="M77.0837 45.8333C77.0837 29.7917 63.3337 17.0833 46.8754 18.9583C34.3754 20.4167 24.3754 30.4167 23.1254 42.9167C22.0837 52.5 26.0421 61.0417 32.7087 66.4583C35.6254 68.9583 37.5004 72.5 37.5004 76.4583V77.0833H62.5004V76.875C62.5004 73.125 64.1671 69.375 67.0837 66.875C73.1254 61.875 77.0837 54.375 77.0837 45.8333Z" fill="#FBC02D"/>
<path d="M63.75 42.0834L57.5 37.9167C56.875 37.5001 55.8333 37.5001 55.2083 37.9167L50 41.2501L45 37.9167C44.375 37.5001 43.3333 37.5001 42.7083 37.9167L36.4583 42.0834C36.0417 42.5001 35.625 42.9167 35.625 43.5417C35.625 44.1667 35.625 44.7917 36.0417 45.2084L43.9583 55.0001V77.0834H48.125V54.1667C48.125 53.7501 47.9167 53.3334 47.7083 52.9167L40.8333 44.3751L43.9583 42.2917L48.9583 45.6251C49.5833 46.0417 50.625 46.0417 51.25 45.6251L56.25 42.2917L59.375 44.3751L52.5 52.9167C52.2917 53.3334 52.0833 53.7501 52.0833 54.1667V77.0834H56.25V55.0001L64.1667 45.2084C64.5833 44.7917 64.7917 44.1667 64.5833 43.5417C64.375 42.9167 64.1667 42.2917 63.75 42.0834Z" fill="#FFF59D"/>
<path d="M50 97.9167C53.4518 97.9167 56.25 95.1185 56.25 91.6667C56.25 88.215 53.4518 85.4167 50 85.4167C46.5482 85.4167 43.75 88.215 43.75 91.6667C43.75 95.1185 46.5482 97.9167 50 97.9167Z" fill="#5C6BC0"/>
<path d="M54.1667 93.75H45.8333C41.25 93.75 37.5 90 37.5 85.4167V75H62.5V85.4167C62.5 90 58.75 93.75 54.1667 93.75Z" fill="#9FA8DA"/>
<path d="M62.5007 85.4165L38.334 88.7498C38.959 90.2082 40.209 91.6665 41.6673 92.4998L61.2507 89.7915C62.084 88.5415 62.5007 87.0832 62.5007 85.4165Z" fill="#5C6BC0"/>
<path d="M37.5 80.6249V84.7916L62.5 81.2499V77.0833L37.5 80.6249Z" fill="#5C6BC0"/>
</svg>
