<svg width="1em" height="1em" viewBox="0 0 96 96" fill="none" xmlns="http://www.w3.org/2000/svg">
<path d="M70 48C75.8348 48 81.4305 50.3178 85.5564 54.4436C89.6822 58.5695 92 64.1652 92 70C92 75.8348 89.6822 81.4305 85.5564 85.5564C81.4305 89.6822 75.8348 92 70 92C64.1652 92 58.5695 89.6822 54.4436 85.5564C50.3178 81.4305 48 75.8348 48 70C48 64.1652 50.3178 58.5695 54.4436 54.4436C58.5695 50.3178 64.1652 48 70 48ZM70 56L69.64 56.028C69.2404 56.101 68.8725 56.294 68.5852 56.5812C68.298 56.8685 68.105 57.2364 68.032 57.636L68 58V68H57.992L57.632 68.032C57.2324 68.105 56.8645 68.298 56.5772 68.5852C56.29 68.8725 56.097 69.2404 56.024 69.64L55.992 70L56.024 70.36C56.097 70.7596 56.29 71.1275 56.5772 71.4148C56.8645 71.702 57.2324 71.895 57.632 71.968L57.992 72H68V82.012L68.032 82.372C68.105 82.7716 68.298 83.1395 68.5852 83.4268C68.8725 83.714 69.2404 83.907 69.64 83.98L70 84.012L70.36 83.98C70.7596 83.907 71.1275 83.714 71.4148 83.4268C71.702 83.1395 71.895 82.7716 71.968 82.372L72 82.012V72L82.016 72.004L82.376 71.972C82.7756 71.899 83.1435 71.706 83.4308 71.4188C83.718 71.1315 83.911 70.7636 83.984 70.364L84.016 70.004L83.984 69.644C83.9107 69.2438 83.7172 68.8755 83.4292 68.5882C83.1411 68.3009 82.7723 68.1083 82.372 68.036L82.012 68.004H72V58.004L71.968 57.644C71.8957 57.2437 71.7031 56.8749 71.4158 56.5868C71.1285 56.2988 70.7602 56.1053 70.36 56.032L70 56ZM48.088 56C45.4114 60.1783 43.9924 65.0379 44 70C44 73.536 44.704 76.904 45.984 79.98C35.768 79.428 30 75.092 30 67V63C30 59.136 33.136 56 37 56H48.088ZM32.504 36C31.8061 38.716 31.8329 41.5675 32.5818 44.2698C33.3308 46.9722 34.7756 49.4308 36.772 51.4L37.42 52.004L37 52C34.5993 51.9991 32.2643 52.7837 30.3511 54.2339C28.438 55.6841 27.0517 57.7204 26.404 60.032L26.268 60.036C14.628 60.036 8 55.676 8 47V43C8.00007 41.2432 8.66068 39.5507 9.85072 38.2584C11.0408 36.9661 12.6732 36.1686 14.424 36.024L15 36H32.504ZM48 28C51.1826 28 54.2348 29.2643 56.4853 31.5147C58.7357 33.7652 60 36.8174 60 40C60 43.1826 58.7357 46.2348 56.4853 48.4853C54.2348 50.7357 51.1826 52 48 52C44.8174 52 41.7652 50.7357 39.5147 48.4853C37.2643 46.2348 36 43.1826 36 40C36 36.8174 37.2643 33.7652 39.5147 31.5147C41.7652 29.2643 44.8174 28 48 28ZM81 36C84.864 36 88 39.136 88 43L87.996 46.848C88.076 48.324 87.956 49.676 87.648 50.904C82.8483 46.4566 76.5434 43.9901 70 44C67.7148 43.9977 65.4393 44.2963 63.232 44.888C64.1569 42.0096 64.2485 38.9282 63.496 36H81ZM26 8C29.1826 8 32.2348 9.26428 34.4853 11.5147C36.7357 13.7652 38 16.8174 38 20C38 23.1826 36.7357 26.2348 34.4853 28.4853C32.2348 30.7357 29.1826 32 26 32C22.8174 32 19.7652 30.7357 17.5147 28.4853C15.2643 26.2348 14 23.1826 14 20C14 16.8174 15.2643 13.7652 17.5147 11.5147C19.7652 9.26428 22.8174 8 26 8ZM70 8C73.1826 8 76.2348 9.26428 78.4853 11.5147C80.7357 13.7652 82 16.8174 82 20C82 23.1826 80.7357 26.2348 78.4853 28.4853C76.2348 30.7357 73.1826 32 70 32C66.8174 32 63.7652 30.7357 61.5147 28.4853C59.2643 26.2348 58 23.1826 58 20C58 16.8174 59.2643 13.7652 61.5147 11.5147C63.7652 9.26428 66.8174 8 70 8Z" fill="#E4A951"/>
</svg>
