<svg width="38" height="38" viewBox="0 0 38 38" fill="none" xmlns="http://www.w3.org/2000/svg">
<path d="M8.7085 27.4614L19.0002 33.25L25.3335 29.6875L29.2918 27.4606" stroke="#FFBD59" stroke-width="4" stroke-linecap="round" stroke-linejoin="round"/>
<path d="M31.6668 23.75V11.875L21.771 6.30884" stroke="#FFBD59" stroke-width="4" stroke-linecap="round" stroke-linejoin="round"/>
<path d="M16.2293 6.30884L6.3335 11.875V23.75" stroke="#FFBD59" stroke-width="4" stroke-linecap="round" stroke-linejoin="round"/>
<path d="M16.625 14.8438L14.25 16.2292V21.7709L16.625 23.1563L19 24.5417L21.375 23.1563L23.75 21.7709V16.2292L21.375 14.8438L19 13.4584L16.625 14.8438Z" stroke="#FFBD59" stroke-width="4" stroke-linecap="round" stroke-linejoin="round"/>
<path d="M19 13.4584V7.91669" stroke="#FFBD59" stroke-width="4" stroke-linecap="round" stroke-linejoin="round"/>
<path d="M23.75 21.375L29.2917 24.5417" stroke="#FFBD59" stroke-width="4" stroke-linecap="round" stroke-linejoin="round"/>
<path d="M14.2502 21.375L8.7085 24.5417" stroke="#FFBD59" stroke-width="4" stroke-linecap="round" stroke-linejoin="round"/>
<path d="M19 7.91669C20.3117 7.91669 21.375 6.85336 21.375 5.54169C21.375 4.23001 20.3117 3.16669 19 3.16669C17.6883 3.16669 16.625 4.23001 16.625 5.54169C16.625 6.85336 17.6883 7.91669 19 7.91669Z" stroke="#FFBD59" stroke-width="4" stroke-linecap="round" stroke-linejoin="round"/>
<path d="M6.3335 28.5C7.64517 28.5 8.7085 27.4367 8.7085 26.125C8.7085 24.8133 7.64517 23.75 6.3335 23.75C5.02182 23.75 3.9585 24.8133 3.9585 26.125C3.9585 27.4367 5.02182 28.5 6.3335 28.5Z" stroke="#FFBD59" stroke-width="4" stroke-linecap="round" stroke-linejoin="round"/>
<path d="M31.667 28.5C32.9787 28.5 34.042 27.4367 34.042 26.125C34.042 24.8133 32.9787 23.75 31.667 23.75C30.3553 23.75 29.292 24.8133 29.292 26.125C29.292 27.4367 30.3553 28.5 31.667 28.5Z" stroke="#FFBD59" stroke-width="4" stroke-linecap="round" stroke-linejoin="round"/>
</svg>
