<svg width="38" height="38" viewBox="0 0 38 38" fill="none" xmlns="http://www.w3.org/2000/svg">
<path d="M20.4348 12.2095C21.147 11.4977 22.1129 11.098 23.1199 11.0984C24.1268 11.0987 25.0924 11.4991 25.8042 12.2114C26.5159 12.9237 26.9156 13.8895 26.9153 14.8965C26.9149 15.9034 26.5145 16.869 25.8023 17.5808C25.4496 17.9332 25.0309 18.2127 24.5702 18.4034C24.1095 18.594 23.6158 18.692 23.1172 18.6919C22.1102 18.6915 21.1446 18.2912 20.4329 17.5789C19.7211 16.8666 19.3214 15.9007 19.3218 14.8938C19.3221 13.8868 19.7225 12.9213 20.4348 12.2095ZM24.4609 13.5547C24.1054 13.1987 23.623 12.9985 23.1199 12.9981C22.6167 12.9977 22.1341 13.1973 21.7781 13.5528C21.4221 13.9083 21.2218 14.3907 21.2215 14.8938C21.2211 15.3969 21.4207 15.8796 21.7762 16.2356C22.1314 16.5916 22.6136 16.7919 23.1165 16.7924C23.6194 16.793 24.102 16.5937 24.458 16.2384C24.814 15.8832 25.0143 15.401 25.0149 14.8981C25.0154 14.3951 24.8161 13.9126 24.4609 13.5566V13.5547Z" fill="#FFBD59"/>
<path d="M22.3234 27.5595C21.7918 27.8117 21.1953 27.8932 20.6156 27.7928C20.036 27.6925 19.5016 27.4152 19.0858 26.999L17.9287 25.84L16.5379 28.158C16.4637 28.2818 16.3623 28.3871 16.2413 28.4658C16.1204 28.5446 15.9831 28.5948 15.8399 28.6125C15.6967 28.6303 15.5513 28.6152 15.4148 28.5684C15.2783 28.5216 15.1542 28.4443 15.0521 28.3423L9.67315 22.9653C9.57079 22.8633 9.49306 22.7392 9.44588 22.6026C9.3987 22.466 9.38332 22.3204 9.40091 22.1769C9.4185 22.0335 9.4686 21.8959 9.54738 21.7747C9.62617 21.6535 9.73157 21.5519 9.85555 21.4776L12.1736 20.0887L11.0165 18.9297C10.6003 18.5139 10.323 17.9795 10.2227 17.3998C10.1223 16.8202 10.2038 16.2237 10.456 15.6921L8.32795 13.5641C8.14985 13.386 8.0498 13.1444 8.0498 12.8925C8.0498 12.6406 8.14985 12.399 8.32795 12.2208L10.342 10.2068C11.1752 9.37388 12.2459 8.8193 13.407 8.61926C14.5681 8.41922 15.7627 8.58354 16.8267 9.08964L18.607 7.30744C20.1509 5.76393 22.0879 4.67244 24.208 4.1513C26.3281 3.63016 28.5503 3.69924 30.634 4.35104C32.0799 4.80324 33.2123 5.93564 33.6645 7.37964C34.9945 11.628 33.8545 16.2621 30.7081 19.4066L28.9259 21.1888C29.432 22.2528 29.5963 23.4474 29.3962 24.6085C29.1962 25.7696 28.6416 26.8403 27.8087 27.6735L25.7947 29.6875C25.6165 29.8656 25.3749 29.9657 25.123 29.9657C24.8711 29.9657 24.6295 29.8656 24.4514 29.6875L22.3234 27.5595ZM30.0678 6.16554C28.3153 5.61664 26.446 5.55788 24.6625 5.99562C22.8791 6.43337 21.2494 7.35093 19.9503 8.64884L18.4018 10.1992L18.4094 10.2068L17.0661 11.5501L17.0585 11.5425L13.0267 15.5743L13.0343 15.5819L12.2686 16.3457C12.1325 16.5288 12.0669 16.7547 12.0836 16.9821C12.1004 17.2096 12.1984 17.4234 12.3598 17.5845L20.4291 25.6538C20.5906 25.8154 20.8049 25.9134 21.0328 25.9298C21.2606 25.9462 21.4868 25.8799 21.6698 25.7431L22.4336 24.9793L22.4393 24.9869L26.4711 20.9551L26.4635 20.9494L27.8087 19.6061L27.8144 19.6118L29.3648 18.0633C30.6633 16.7646 31.5816 15.1351 32.02 13.3516C32.4584 11.5681 32.4003 9.69864 31.8519 7.94584C31.7208 7.52643 31.49 7.14503 31.1793 6.83431C30.8686 6.5236 30.4872 6.29282 30.0678 6.16174V6.16554ZM23.7826 26.3321L25.1221 27.6716L26.4654 26.3302C26.9372 25.8594 27.2769 25.2727 27.4503 24.629C27.6237 23.9854 27.6248 23.3074 27.4534 22.6632L23.7826 26.3321ZM15.3523 10.564C14.7081 10.3928 14.0302 10.394 13.3866 10.5674C12.7429 10.7408 12.1562 11.0804 11.6853 11.552L10.3439 12.8934L11.6834 14.2329L15.3504 10.564H15.3523ZM16.5436 24.4568L13.5606 21.4738L11.8772 22.4808L15.5347 26.1383L16.5436 24.4568Z" fill="#FFBD59"/>
<path d="M11.0258 28.3329C11.1988 28.1537 11.2946 27.9137 11.2924 27.6646C11.2903 27.4156 11.1904 27.1773 11.0142 27.0011C10.8381 26.825 10.5998 26.7251 10.3507 26.7229C10.1016 26.7208 9.86166 26.8165 9.68249 26.9896L6.32139 30.3488C6.23318 30.4371 6.16324 30.5419 6.11555 30.6573C6.06787 30.7727 6.04337 30.8963 6.04346 31.0211C6.04355 31.1459 6.06822 31.2695 6.11607 31.3848C6.16392 31.5001 6.23401 31.6048 6.32234 31.693C6.41066 31.7812 6.5155 31.8512 6.63085 31.8989C6.74621 31.9465 6.86983 31.971 6.99466 31.971C7.11948 31.9709 7.24307 31.9462 7.35836 31.8983C7.47365 31.8505 7.57838 31.7804 7.66659 31.6921L11.0258 28.3329Z" fill="#FFBD59"/>
<path d="M8.33552 24.3011C8.51361 24.4792 8.61366 24.7208 8.61366 24.9727C8.61366 25.2246 8.51361 25.4662 8.33552 25.6444L6.99032 26.9915C6.81218 27.1699 6.57048 27.2702 6.31839 27.2704C6.06629 27.2705 5.82445 27.1706 5.64607 26.9924C5.46768 26.8143 5.36737 26.5726 5.36719 26.3205C5.36701 26.0684 5.46698 25.8266 5.64512 25.6482L6.99412 24.2992C7.17219 24.1217 7.41337 24.022 7.66482 24.022C7.91626 24.022 8.15744 24.1217 8.33552 24.2992V24.3011Z" fill="#FFBD59"/>
<path d="M13.7144 31.0232C13.8051 30.9356 13.8775 30.8308 13.9273 30.7149C13.9771 30.5989 14.0033 30.4743 14.0044 30.3481C14.0055 30.222 13.9814 30.0969 13.9337 29.9802C13.8859 29.8634 13.8154 29.7573 13.7262 29.6681C13.637 29.5789 13.5309 29.5084 13.4142 29.4606C13.2974 29.4129 13.1723 29.3888 13.0462 29.3899C12.92 29.391 12.7954 29.4172 12.6795 29.467C12.5636 29.5168 12.4587 29.5892 12.3711 29.6799L11.024 31.0251C10.9357 31.1133 10.8656 31.2181 10.8177 31.3333C10.7699 31.4486 10.7452 31.5722 10.7451 31.697C10.745 31.8219 10.7695 31.9455 10.8172 32.0608C10.8649 32.1762 10.9348 32.281 11.023 32.3694C11.1112 32.4577 11.216 32.5278 11.3313 32.5756C11.4466 32.6235 11.5701 32.6482 11.695 32.6482C11.8198 32.6483 11.9434 32.6238 12.0588 32.5761C12.1741 32.5285 12.279 32.4585 12.3673 32.3703L13.7163 31.0213L13.7144 31.0232Z" fill="#FFBD59"/>
</svg>
