<svg width="38" height="38" viewBox="0 0 38 38" fill="none" xmlns="http://www.w3.org/2000/svg">
<path d="M33.2498 19.3483C33.2498 10.6558 26.5048 4.75 18.9998 4.75C11.574 4.75 4.74984 10.5292 4.74984 19.4433C3.79984 19.9817 3.1665 20.995 3.1665 22.1667V25.3333C3.1665 27.075 4.5915 28.5 6.33317 28.5H7.9165V18.8417C7.9165 12.7142 12.8723 7.75833 18.9998 7.75833C25.1273 7.75833 30.0832 12.7142 30.0832 18.8417V30.0833H17.4165V33.25H30.0832C31.8248 33.25 33.2498 31.825 33.2498 30.0833V28.1517C34.184 27.6608 34.8332 26.695 34.8332 25.555V21.9133C34.8332 20.805 34.184 19.8392 33.2498 19.3483Z" fill="#FFBD59"/>
<path d="M14.2498 22.1667C15.1243 22.1667 15.8332 21.4578 15.8332 20.5833C15.8332 19.7089 15.1243 19 14.2498 19C13.3754 19 12.6665 19.7089 12.6665 20.5833C12.6665 21.4578 13.3754 22.1667 14.2498 22.1667Z" fill="#FFBD59"/>
<path d="M23.7498 22.1667C24.6243 22.1667 25.3332 21.4578 25.3332 20.5833C25.3332 19.7089 24.6243 19 23.7498 19C22.8754 19 22.1665 19.7089 22.1665 20.5833C22.1665 21.4578 22.8754 22.1667 23.7498 22.1667Z" fill="#FFBD59"/>
<path d="M28.4997 17.4642C28.1222 15.2382 26.9693 13.2176 25.2451 11.76C23.5209 10.3024 21.3367 9.50185 19.0789 9.5C14.2814 9.5 9.11975 13.4742 9.53141 19.7125C11.4839 18.9135 13.2083 17.6439 14.5509 16.0167C15.8936 14.3895 16.8127 12.4553 17.2264 10.3867C19.3006 14.5508 23.5597 17.4167 28.4997 17.4642Z" fill="#FFBD59"/>
</svg>
