<svg width="38" height="38" viewBox="0 0 38 38" fill="none" xmlns="http://www.w3.org/2000/svg">
<path d="M19 38C16.4271 38 13.9655 37.499 11.6152 36.4971C9.26497 35.4951 7.24251 34.1468 5.54785 32.4521C3.85319 30.7575 2.50488 28.735 1.50293 26.3848C0.500977 24.0345 0 21.5729 0 19C0 16.4271 0.500977 13.9655 1.50293 11.6152C2.50488 9.26497 3.85319 7.24251 5.54785 5.54785C7.24251 3.85319 9.26497 2.50488 11.6152 1.50293C13.9655 0.500977 16.4271 0 19 0C21.5729 0 24.0345 0.500977 26.3848 1.50293C28.735 2.50488 30.7575 3.85319 32.4521 5.54785C34.1468 7.24251 35.4951 9.26497 36.4971 11.6152C37.499 13.9655 38 16.4271 38 19C38 21.5729 37.499 24.0345 36.4971 26.3848C35.4951 28.735 34.1468 30.7575 32.4521 32.4521C30.7575 34.1468 28.735 35.4951 26.3848 36.4971C24.0345 37.499 21.5729 38 19 38ZM29.0195 16.5137C28.7227 16.6621 28.4134 16.6621 28.0918 16.5137C27.7702 16.3652 27.5413 16.124 27.4053 15.79C27.2692 15.4561 27.2692 15.1159 27.4053 14.7695C27.5413 14.4232 27.7702 14.1882 28.0918 14.0645L31.6172 12.4688C30.207 9.77214 28.1784 7.73112 25.5312 6.3457L23.9355 9.9082C23.8118 10.2298 23.5768 10.4587 23.2305 10.5947C22.8841 10.7308 22.5439 10.7308 22.21 10.5947C21.876 10.4587 21.6348 10.2298 21.4863 9.9082C21.3379 9.58659 21.3379 9.26497 21.4863 8.94336L23.082 5.34375C21.7461 4.94792 20.3854 4.75 19 4.75C17.6146 4.75 16.2539 4.94792 14.918 5.34375L16.5137 8.94336C16.6621 9.26497 16.6621 9.58659 16.5137 9.9082C16.3652 10.2298 16.124 10.4587 15.79 10.5947C15.4561 10.7308 15.1159 10.7308 14.7695 10.5947C14.4232 10.4587 14.1882 10.2298 14.0645 9.9082L12.4688 6.3457C9.82161 7.70638 7.79297 9.7474 6.38281 12.4688L9.9082 14.0273C10.2051 14.1758 10.4215 14.417 10.5576 14.751C10.6937 15.085 10.6937 15.4251 10.5576 15.7715C10.4215 16.1178 10.1989 16.359 9.88965 16.4951C9.5804 16.6312 9.26497 16.625 8.94336 16.4766L5.34375 14.918C4.94792 16.2539 4.75 17.6146 4.75 19C4.75 20.3854 4.94792 21.7461 5.34375 23.082L8.94336 21.5234C9.26497 21.375 9.5804 21.3688 9.88965 21.5049C10.1989 21.641 10.4215 21.8822 10.5576 22.2285C10.6937 22.5749 10.6937 22.915 10.5576 23.249C10.4215 23.583 10.2051 23.8242 9.9082 23.9727L6.38281 25.5312C7.79297 28.2279 9.82161 30.2689 12.4688 31.6543L14.0273 28.0918C14.1758 27.7949 14.417 27.5785 14.751 27.4424C15.085 27.3063 15.4251 27.3063 15.7715 27.4424C16.1178 27.5785 16.359 27.8011 16.4951 28.1104C16.6312 28.4196 16.625 28.735 16.4766 29.0566L14.918 32.6562C16.2539 33.0521 17.6146 33.25 19 33.25C20.3854 33.25 21.7461 33.0521 23.082 32.6562L21.5234 29.0566C21.375 28.735 21.3688 28.4196 21.5049 28.1104C21.641 27.8011 21.8822 27.5785 22.2285 27.4424C22.5749 27.3063 22.915 27.3063 23.249 27.4424C23.583 27.5785 23.8242 27.7949 23.9727 28.0918L25.5312 31.6543C28.2031 30.2689 30.2318 28.2279 31.6172 25.5312L28.0918 23.9355C27.7702 23.8118 27.5413 23.5768 27.4053 23.2305C27.2692 22.8841 27.2692 22.5439 27.4053 22.21C27.5413 21.876 27.7702 21.6348 28.0918 21.4863C28.4134 21.3379 28.7227 21.3379 29.0195 21.4863L32.6562 23.082C33.0521 21.7461 33.25 20.3854 33.25 19C33.25 17.6146 33.0521 16.2539 32.6562 14.918L29.0195 16.5137ZM19 21.375C18.332 21.375 17.7692 21.1462 17.3115 20.6885C16.8538 20.2308 16.625 19.668 16.625 19C16.625 18.4805 16.7796 18.0104 17.0889 17.5898C17.3981 17.1693 17.8001 16.8848 18.2949 16.7363L27.3125 9.5H27.9062C28.0794 9.5 28.2217 9.55566 28.333 9.66699C28.4443 9.77832 28.5 9.92057 28.5 10.0938V10.6875L21.2637 19.7051C21.1152 20.1999 20.8307 20.6019 20.4102 20.9111C19.9896 21.2204 19.5195 21.375 19 21.375Z" fill="#FFBD59"/>
</svg>
